<mxfile host="app.diagrams.net" modified="2024-02-21T02:07:40.860Z" agent="Mozilla/5.0 (Macintosh; Intel Mac OS X 10_15_7) AppleWebKit/537.36 (KHTML, like Gecko) Chrome/121.0.0.0 Safari/537.36" version="23.1.5" etag="0Hu3pscaICbq9Ku10tst" type="github">
  <diagram name="Page-1" id="_8uqs9WQ0I7f9jz-JGUB">
    <mxGraphModel>
      <root>
        <mxCell id="0" />
        <mxCell id="1" parent="0" />
      </root>
    </mxGraphModel>
  </diagram>
</mxfile>
